<svg id="logo--blog" data-name="Blog Logo" xmlns="http://www.w3.org/2000/svg" viewBox="0 0 575.97 871.53"><defs><style>.cls-1{font-size:650px;font-family:Helvetica-Bold, Helvetica;font-weight:700;}.cls-2,.cls-3{stroke:#000;stroke-miterlimit:10;}.cls-3{fill:none;stroke-width:2px;}</style></defs><title>blog</title><g id="Content"><text class="cls-1" transform="translate(0 558.91)">F</text><g id="period"><g id="Head"><ellipse cx="435.55" cy="506.06" rx="51.54" ry="50.99"/><path class="cls-2" d="M411.89,400c9.1-9.22,33.69-14.21,33.69-14.21s-3.68,25-13.06,34.13a14.35,14.35,0,0,1-20.14,0A14,14,0,0,1,411.89,400Z" transform="translate(48.97 91.68)"/><path class="cls-2" d="M404,427.58c14.23-9.83,44.49-14.8,44.49-14.8s-14.51,27-29,36.73c-8.48,5.86-18.82,5.7-23.09-.35S395.56,433.44,404,427.58Z" transform="translate(48.97 91.68)"/></g><g id="squawk"><path class="cls-3" d="M459.59,402.9c-4.24-1.22-6.53-6.11-5.12-10.92" transform="translate(48.97 91.68)"/><path class="cls-3" d="M470.73,398.36c-6.64-1.91-10.59-8.33-8.82-14.35" transform="translate(48.97 91.68)"/><path class="cls-3" d="M482,392.9c-9.13-2.62-14.63-11.24-12.28-19.25" transform="translate(48.97 91.68)"/></g></g></g></svg>