<svg id="Blog_Logo" data-name="Blog Logo" xmlns="http://www.w3.org/2000/svg" viewBox="0 0 392.25 623.48"><defs><style>.cls-1{font-size:465px;font-family:Helvetica-Bold, Helvetica;font-weight:700;}.cls-2,.cls-3{stroke:#000;stroke-miterlimit:10;}.cls-3{fill:none;stroke-width:2px;}</style></defs><title>logo</title><g id="Content"><text class="cls-1" transform="translate(0 399.84)">F</text><g id="period"><g id="Head"><ellipse cx="316.46" cy="358.18" rx="40.78" ry="40.57"/><path class="cls-2" d="M395.52,365.11c7.2-7.34,26.66-11.31,26.66-11.31s-2.91,19.89-10.33,27.16a11.31,11.31,0,0,1-15.93,0A11.17,11.17,0,0,1,395.52,365.11Z" transform="translate(-59.03 -18.38)"/><path class="cls-2" d="M389.31,387.07c11.26-7.82,35.21-11.78,35.21-11.78s-11.48,21.48-23,29.22c-6.71,4.66-14.9,4.54-18.28-.28S382.6,391.73,389.31,387.07Z" transform="translate(-59.03 -18.38)"/></g><g id="squawk"><path class="cls-3" d="M433.26,367.43c-3.36-1-5.17-4.86-4.05-8.69" transform="translate(-59.03 -18.38)"/><path class="cls-3" d="M442.08,363.82c-5.25-1.52-8.38-6.63-7-11.42" transform="translate(-59.03 -18.38)"/><path class="cls-3" d="M451,359.47c-7.23-2.09-11.58-8.94-9.72-15.32" transform="translate(-59.03 -18.38)"/></g></g></g></svg>